<?xml version="1.0" standalone="no"?>
<!DOCTYPE svg PUBLIC "-//W3C//DTD SVG 20010904//EN"
 "http://www.w3.org/TR/2001/REC-SVG-20010904/DTD/svg10.dtd">
<svg version="1.0" xmlns="http://www.w3.org/2000/svg"
 width="500.000000pt" height="500.000000pt" viewBox="0 0 500.000000 500.000000"
 preserveAspectRatio="xMidYMid meet">
<metadata>
Created by potrace 1.16, written by Peter Selinger 2001-2019
</metadata>
<g transform="translate(0.000000,500.000000) scale(0.100000,-0.100000)"
fill="#000000" stroke="none">
<path d="M150 3034 c0 -4 8 -13 18 -20 15 -11 17 -42 20 -340 3 -320 -2 -384
-29 -384 -5 0 -9 -4 -9 -10 0 -6 95 -10 264 -10 298 0 276 -7 276 87 l0 55
-33 -44 c-48 -63 -89 -80 -215 -85 -65 -3 -118 -1 -134 6 l-28 11 0 191 0 192
118 -5 c127 -6 166 -18 187 -57 13 -24 14 -19 15 59 l0 85 -23 -27 c-32 -40
-65 -48 -188 -48 l-109 0 0 171 0 172 123 -5 c144 -6 192 -25 233 -93 l24 -40
0 57 c0 95 21 88 -261 88 -137 0 -249 -3 -249 -6z"/>
<path d="M1381 3014 c24 -25 24 -27 28 -286 4 -307 -3 -402 -30 -429 -10 -10
-19 -21 -19 -24 0 -3 114 -5 254 -5 l254 0 4 60 c1 33 1 60 -2 60 -3 0 -15
-15 -27 -34 -34 -53 -79 -68 -208 -70 -83 -1 -116 3 -129 13 -15 13 -16 44
-14 358 3 315 5 346 21 357 9 7 17 16 17 20 0 3 -39 6 -87 6 l-86 0 24 -26z"/>
<path d="M2061 3014 c24 -25 24 -27 28 -286 4 -307 -3 -402 -30 -429 -10 -10
-19 -21 -19 -24 0 -3 122 -5 270 -5 l270 0 0 39 c0 21 3 53 6 70 4 20 3 31 -5
31 -6 0 -11 -5 -11 -11 0 -23 -43 -70 -83 -91 -36 -19 -59 -22 -163 -22 -88
-1 -125 3 -137 13 -15 12 -17 38 -17 197 l0 184 84 0 c128 0 186 -14 219 -52
l27 -32 0 82 c0 76 -11 106 -24 64 -12 -37 -47 -46 -178 -50 l-128 -4 0 171 0
171 95 0 c161 0 232 -27 271 -102 9 -16 18 -28 20 -25 3 2 2 34 -2 71 l-7 66
-255 0 -255 0 24 -26z"/>
<path d="M3028 3025 c-23 -13 -26 -20 -22 -47 5 -26 -19 -95 -115 -331 -122
-301 -142 -342 -173 -352 -37 -13 -16 -25 44 -25 59 0 60 1 45 18 -26 28 -20
68 22 172 l39 95 159 3 160 2 46 -114 c50 -122 54 -145 35 -164 -9 -9 7 -12
75 -12 48 0 87 2 87 4 0 2 -15 19 -32 38 -24 26 -71 127 -177 382 -79 190
-149 346 -155 346 -6 -1 -23 -7 -38 -15z m76 -266 c40 -96 71 -177 69 -181 -2
-5 -69 -8 -149 -8 -79 0 -144 3 -144 8 0 14 143 363 147 359 2 -3 37 -83 77
-178z"/>
<path d="M3581 3014 l24 -26 0 -335 0 -335 -22 -18 c-13 -10 -23 -21 -23 -24
0 -3 38 -6 85 -6 50 0 85 4 85 10 0 6 -4 10 -9 10 -21 0 -31 72 -31 221 l0
159 55 0 c66 0 114 -18 142 -53 11 -15 46 -87 77 -161 73 -171 86 -186 163
-185 51 0 55 2 30 11 -30 11 -70 81 -122 215 -34 88 -74 138 -123 153 -48 16
-63 30 -31 30 60 1 146 64 168 123 18 48 13 111 -11 147 -47 68 -131 90 -347
90 l-134 0 24 -26z m296 -15 c67 -32 88 -70 88 -156 0 -68 -2 -74 -34 -107
-38 -40 -91 -56 -180 -56 l-61 0 0 168 c0 93 3 172 8 176 12 14 135 -4 179
-25z"/>
<path d="M4333 3016 l27 -25 0 -336 c0 -322 -1 -336 -20 -355 -11 -11 -20 -22
-20 -25 0 -3 29 -5 65 -5 63 0 86 12 45 23 -45 12 -51 57 -48 358 l3 282 260
-339 260 -339 5 373 c5 341 7 375 23 386 29 22 20 26 -50 26 l-67 0 32 -27
c27 -23 34 -39 42 -88 12 -70 13 -505 3 -504 -5 0 -114 138 -244 307 l-235
307 -54 3 -54 3 27 -25z"/>
</g>
</svg>
