<?xml version="1.0" standalone="no"?>
<!DOCTYPE svg PUBLIC "-//W3C//DTD SVG 20010904//EN"
 "http://www.w3.org/TR/2001/REC-SVG-20010904/DTD/svg10.dtd">
<svg version="1.0" xmlns="http://www.w3.org/2000/svg"
 width="500.000000pt" height="500.000000pt" viewBox="0 0 500.000000 500.000000"
 preserveAspectRatio="xMidYMid meet">
<metadata>
Created by potrace 1.16, written by Peter Selinger 2001-2019
</metadata>
<g transform="translate(0.000000,500.000000) scale(0.100000,-0.100000)"
fill="#000000" stroke="none">
<path d="M172 3588 l3 -1413 28 -105 c33 -122 50 -250 36 -266 -10 -13 -2 -44
12 -44 5 0 9 -24 9 -52 0 -49 -1 -51 -14 -32 -8 11 -18 34 -22 50 -4 16 -10
34 -13 39 -3 6 -13 33 -22 60 -16 47 -17 3 -18 -817 l-1 -868 2413 0 2413 0 1
2430 1 2430 -1409 0 c-1229 0 -1409 -2 -1409 -15 0 -22 41 -55 69 -55 33 -1
57 -19 71 -54 17 -46 12 -68 -29 -116 -22 -26 -36 -51 -33 -56 4 -6 22 -15 41
-20 48 -13 58 -54 36 -143 -9 -36 -18 -83 -20 -103 -5 -54 -21 -78 -53 -78
-15 0 -36 7 -46 15 -11 8 -37 15 -58 15 -33 0 -41 -5 -56 -31 -31 -57 -51 -77
-85 -83 -47 -9 -64 0 -77 39 -9 26 -7 47 5 97 12 45 15 82 11 129 -8 80 21
228 59 301 28 54 30 65 13 119 l-11 39 -924 0 -923 0 2 -1412z m2400 835 c54
-49 -21 -192 -87 -167 -14 6 -18 16 -30 76 -1 10 3 22 11 29 8 6 14 18 14 27
0 23 30 52 53 52 11 0 29 -7 39 -17z m-1194 -33 c24 -6 60 -24 80 -40 25 -19
62 -34 112 -46 44 -9 93 -29 119 -46 31 -20 54 -28 76 -26 49 4 57 -5 152
-185 l15 -29 27 26 c15 14 31 26 35 26 10 0 62 42 120 95 43 40 154 123 192
143 34 18 48 -1 52 -73 3 -48 0 -70 -10 -83 -8 -9 -22 -38 -32 -64 -15 -42
-110 -171 -140 -190 -21 -14 -81 -8 -119 12 -56 30 -72 26 -97 -25 -21 -42
-21 -47 -6 -70 20 -31 21 -74 0 -89 -8 -7 -18 -31 -21 -54 -3 -23 -8 -42 -11
-42 -3 0 -18 15 -33 33 -24 28 -30 31 -48 20 -34 -21 -61 -16 -61 10 0 13 -9
32 -21 43 -12 10 -28 32 -36 49 -9 16 -23 39 -33 50 -29 33 -32 59 -10 85 11
13 20 27 20 31 0 13 -83 79 -92 73 -5 -4 -24 -7 -41 -9 -18 -1 -43 -6 -57 -10
-24 -6 -24 -6 -6 9 21 17 21 18 -12 35 -25 13 -69 3 -127 -29 -28 -16 -30 -21
-35 -91 -6 -77 -14 -76 -25 3 -9 70 -75 117 -83 60 -2 -12 -10 -22 -18 -22 -8
0 -14 -4 -14 -9 0 -5 -10 -11 -22 -13 -18 -2 -23 -10 -24 -36 -1 -35 -13 -57
-15 -26 0 10 -2 38 -4 62 -2 23 1 42 6 42 5 0 9 10 8 23 l0 22 -11 -22 c-7
-15 -20 -23 -37 -23 -23 0 -129 -46 -141 -61 -10 -13 -84 -28 -94 -20 -6 5
-20 11 -31 14 -15 4 -13 5 8 6 15 0 27 6 27 12 0 5 16 17 36 25 50 21 144 93
144 110 0 16 -4 17 -28 5 -9 -5 -46 -24 -82 -41 -36 -17 -73 -35 -82 -40 -19
-10 -27 -15 -93 -51 -22 -11 -60 -38 -85 -58 -25 -20 -58 -43 -75 -51 -16 -8
-34 -18 -40 -23 -5 -4 -28 -21 -50 -37 -22 -16 -45 -34 -52 -40 -30 -25 -31 0
-1 40 12 17 27 30 34 30 16 0 64 57 64 76 0 8 4 14 8 14 17 0 160 121 161 136
1 6 16 24 34 40 18 16 36 37 40 47 6 15 3 17 -16 12 -12 -4 -26 -11 -31 -16
-6 -5 -23 -9 -39 -9 -21 0 -28 -4 -24 -14 4 -10 0 -12 -15 -8 -11 3 -24 -1
-28 -9 -12 -18 -23 -5 -16 18 14 39 242 200 319 225 94 29 209 48 305 49 45 0
82 5 82 10 0 5 -9 9 -20 9 -11 0 -20 5 -20 11 0 7 9 9 23 6 12 -3 42 -11 65
-17z m2446 -205 c3 -9 15 -70 26 -137 18 -103 19 -123 7 -137 -8 -9 -17 -24
-20 -34 -9 -25 -33 -31 -76 -18 -51 15 -60 39 -68 180 -6 112 -5 119 16 140
26 26 105 30 115 6z m-2026 -567 c21 -55 45 -69 50 -30 5 30 19 28 53 -9 34
-36 38 -76 12 -120 -21 -35 -25 -36 -57 -4 -14 14 -33 25 -43 25 -17 0 -56 48
-110 138 -25 42 -18 52 39 52 35 0 37 -2 56 -52z m1432 -298 c27 -38 21 -56
-22 -65 -18 -3 -64 -17 -103 -29 -38 -13 -92 -29 -120 -35 -27 -7 -64 -19 -81
-27 -18 -9 -41 -14 -51 -12 -15 4 -10 12 25 45 24 23 55 44 69 48 14 3 46 20
70 36 46 32 133 67 170 68 13 1 30 -11 43 -29z m-1702 -382 c6 -55 -120 -138
-231 -152 -47 -6 -57 -5 -57 8 0 8 9 18 20 21 11 3 20 11 20 16 0 5 10 9 21 9
28 0 89 38 89 55 0 13 52 57 80 68 32 12 55 3 58 -25z m135 -196 c7 -9 13 -48
13 -96 1 -45 5 -103 8 -131 21 -181 19 -195 -29 -195 -13 0 -25 -4 -27 -10 -3
-10 -27 -14 -69 -12 -20 2 -28 9 -36 35 -6 21 -15 32 -26 31 -21 -2 -23 22 -2
30 9 3 15 18 15 35 0 25 -3 28 -21 24 -11 -3 -23 -12 -26 -20 -4 -10 -14 -12
-37 -7 -38 8 -55 21 -67 52 -8 20 -12 22 -25 11 -12 -10 -18 -9 -30 3 -13 13
-14 22 -4 55 11 35 10 45 -10 82 -15 31 -26 42 -38 38 -43 -12 -47 -11 -50 10
-3 22 -1 22 44 16 27 -3 59 -12 73 -19 17 -9 30 -10 43 -3 10 5 34 7 53 3 29
-5 40 -2 60 17 65 63 72 67 133 66 25 0 47 -6 55 -15z m1048 -103 c13 -11 37
-27 52 -35 15 -8 32 -25 37 -38 11 -30 11 -114 -1 -122 -5 -3 -3 -17 5 -32 8
-15 22 -63 31 -107 9 -44 24 -113 33 -153 18 -84 13 -101 -37 -118 -18 -6 -36
-16 -40 -22 -4 -6 -18 -13 -31 -14 -25 -3 -25 -2 -24 77 0 52 7 96 18 125 14
34 18 72 18 154 -1 59 -3 110 -6 113 -2 2 -15 -1 -28 -8 -12 -7 -29 -15 -37
-18 -8 -4 -24 -47 -36 -96 -22 -88 -54 -158 -82 -182 -11 -8 -23 -9 -44 -1
-44 15 -74 3 -110 -44 -43 -57 -90 -97 -112 -98 -31 0 -107 50 -113 76 -12 48
57 178 149 277 19 20 41 47 50 60 26 39 113 134 166 181 59 53 102 60 142 25z
m-1336 -344 c28 -45 40 -54 47 -34 2 5 11 7 20 4 24 -9 31 -113 23 -340 -7
-219 -7 -209 1 -257 3 -21 3 -46 -1 -55 -5 -14 -13 -3 -31 42 -14 33 -33 78
-43 100 -10 22 -22 51 -26 65 -4 14 -11 30 -16 36 -5 6 -12 33 -16 59 -5 38
-3 47 8 43 8 -3 16 -13 18 -24 2 -10 9 -23 17 -27 8 -4 14 -19 14 -32 0 -14 5
-25 10 -25 6 0 10 14 10 30 0 17 -4 30 -10 30 -14 0 -12 23 5 56 9 19 12 43 8
73 -11 87 -29 72 -36 -29 -2 -34 -5 -40 -11 -25 -19 47 -31 71 -44 87 -8 9
-12 23 -9 30 4 8 8 5 12 -9 4 -13 15 -23 26 -23 17 0 19 8 19 64 0 44 -5 67
-15 76 -8 7 -15 18 -15 26 0 7 -7 29 -16 48 -18 37 -13 69 9 60 7 -2 26 -25
42 -49z m-285 -149 c0 -18 32 -76 43 -76 4 0 7 -11 7 -25 0 -14 -6 -25 -13
-25 -15 0 -47 -35 -47 -52 0 -6 8 -16 17 -23 15 -11 15 -15 -6 -49 -13 -20
-26 -36 -30 -36 -12 0 -41 58 -41 83 0 14 -4 29 -10 32 -5 3 -10 17 -10 30 0
18 4 23 15 19 26 -10 54 36 55 89 0 26 5 47 10 47 6 0 10 -6 10 -14z m1993
-496 c6 -23 27 -25 82 -6 22 8 90 17 150 21 107 6 165 -1 172 -21 3 -9 -251
-63 -328 -70 -20 -2 -41 -4 -45 -5 -36 -6 -74 35 -74 80 0 28 36 28 43 1z
m-2191 -130 c4 0 8 -6 8 -13 0 -22 123 -127 150 -127 5 0 10 -4 10 -9 0 -5
-26 -3 -57 5 -65 15 -153 18 -153 6 0 -5 -27 -17 -60 -27 -34 -10 -63 -22 -66
-27 -3 -4 -11 -8 -18 -8 -21 0 -7 55 17 65 12 6 26 24 31 42 7 27 17 35 60 49
66 22 70 24 57 37 -6 6 -11 20 -10 32 0 19 1 19 11 -2 6 -13 15 -23 20 -23z
m657 -447 c2 -65 -6 -75 -34 -47 -14 14 -29 33 -35 44 -13 24 -36 26 -44 4 -3
-9 -6 -41 -6 -72 -1 -44 -3 -53 -11 -39 -5 9 -7 22 -4 28 4 5 -5 26 -20 45
-23 30 -31 34 -66 32 -21 -2 -39 -4 -39 -5 0 -3 12 -17 55 -64 8 -9 15 -20 15
-26 0 -6 7 -14 16 -17 8 -3 12 -11 8 -17 -5 -8 -10 -6 -16 5 -5 9 -15 16 -22
16 -7 0 -28 18 -47 40 -19 23 -50 51 -69 63 l-35 22 40 8 c22 5 67 10 100 11
83 4 171 24 187 43 11 14 13 13 19 -8 4 -13 7 -43 8 -66z"/>
</g>
</svg>
